# xmcd
# 
# Track frame offsets:
#     150
#     17490
#     37852
#     54827
#     75460
#     92250
#     113012
#     137420
#     152352
#     171012
#     180607
#     199922
# 
# Disc length: 3132
# 
# Revision: 3
# Processed by: cddbd v1.5.2PL0 Copyright (c) Steve Scherf et al.
# Submitted via: fre:ac v1.0.17
# 
DISCID=780c3a0c
DTITLE=Muddy Waters - King Bee
DYEAR=1981
DGENRE=Blues
TTITLE0=I'm A King Bee
TTITLE1=Too Young To Know
TTITLE2=Mean Old Frisco Blues
TTITLE3=Forever Lonely
TTITLE4=I Feel Like Going Home
TTITLE5=Champagne and Reefer
TTITLE6=Sad Sad Day
TTITLE7=(My Eyes) Keep Me In Trouble
TTITLE8=Deep Down In Florida #2
TTITLE9=No Escape From The Blues
TTITLE10=I Won't Go On
TTITLE11=Clouds In My Heart
EXTD=YEAR: 1981
EXTT0=
EXTT1=
EXTT2=
EXTT3=
EXTT4=
EXTT5=
EXTT6=
EXTT7=
EXTT8=
EXTT9=
EXTT10=
EXTT11=
PLAYORDER=
